<svg width="3172" height="2031" xmlns="http://www.w3.org/2000/svg" xmlns:xlink="http://www.w3.org/1999/xlink" xml:space="preserve" overflow="hidden"><g transform="translate(-471 -202)"><path d="M473.5 542.172C473.5 355.681 624.68 204.5 811.171 204.5L3302.83 204.5C3489.32 204.5 3640.5 355.681 3640.5 542.172L3640.5 1892.83C3640.5 2079.32 3489.32 2230.5 3302.83 2230.5L811.171 2230.5C624.68 2230.5 473.5 2079.32 473.5 1892.83Z" stroke="#172C51" stroke-width="4.58333" stroke-miterlimit="8" fill="none" fill-rule="evenodd"/><text font-family="DengXian,DengXian_MSFontService,sans-serif" font-weight="400" font-size="83" transform="matrix(1 0 0 1 659.194 330)">BatchProcessProgram</text><path d="M2238.5 575.503C2238.5 514.75 2287.75 465.5 2348.5 465.5L3418.5 465.5C3479.25 465.5 3528.5 514.75 3528.5 575.503L3528.5 1015.5C3528.5 1076.25 3479.25 1125.5 3418.5 1125.5L2348.5 1125.5C2287.75 1125.5 2238.5 1076.25 2238.5 1015.5Z" stroke="#00B0F0" stroke-width="4.58333" stroke-miterlimit="8" fill="none" fill-rule="evenodd"/><text font-family="DengXian,DengXian_MSFontService,sans-serif" font-weight="400" font-size="83" text-decoration="underline" transform="matrix(1 0 0 1 2296.23 576)">Instance </text><text font-family="DengXian,DengXian_MSFontService,sans-serif" font-weight="400" font-size="83" text-decoration="underline" transform="matrix(1 0 0 1 2610.76 576)">1</text><text font-family="DengXian,DengXian_MSFontService,sans-serif" font-weight="400" font-size="83" transform="matrix(1 0 0 1 2676.64 576)">(</text><text font-family="DengXian,DengXian_MSFontService,sans-serif" font-weight="700" font-size="73" transform="matrix(1 0 0 1 2700.71 576)">working directory</text><text font-family="DengXian,DengXian_MSFontService,sans-serif" font-weight="400" font-size="83" transform="matrix(1 0 0 1 3288.52 576)">)</text><text font-family="DengXian,DengXian_MSFontService,sans-serif" font-weight="400" font-size="83" transform="matrix(6.12323e-17 1 -1 6.12323e-17 2786.4 1247)">……</text><path d="M626.5 633.837C626.5 540.867 701.867 465.5 794.837 465.5L1606.16 465.5C1699.13 465.5 1774.5 540.867 1774.5 633.837L1774.5 1307.16C1774.5 1400.13 1699.13 1475.5 1606.16 1475.5L794.837 1475.5C701.867 1475.5 626.5 1400.13 626.5 1307.16Z" stroke="#FF0000" stroke-width="4.58333" stroke-miterlimit="8" fill="none" fill-rule="evenodd"/><text font-family="DengXian,DengXian_MSFontService,sans-serif" font-weight="400" font-size="83" transform="matrix(1 0 0 1 748.786 563)">src</text><rect x="2291.5" y="916.5" width="379" height="111" stroke="#172C51" stroke-width="4.58333" stroke-miterlimit="8" fill="none"/><text font-family="DengXian,DengXian_MSFontService,sans-serif" font-weight="400" font-size="83" transform="matrix(1 0 0 1 2369 999)">run.py</text><rect x="2943.5" y="916.5" width="539" height="111" stroke="#172C51" stroke-width="4.58333" stroke-miterlimit="8" fill="none"/><text font-family="DengXian,DengXian_MSFontService,sans-serif" font-weight="400" font-size="83" transform="matrix(1 0 0 1 3009.46 999)">config.yaml</text><rect x="985.5" y="916.5" width="451" height="111" stroke="#172C51" stroke-width="4.58333" stroke-miterlimit="8" fill="none"/><text font-family="DengXian,DengXian_MSFontService,sans-serif" font-weight="400" font-size="83" transform="matrix(1 0 0 1 1021.03 999)">adapter.py</text><path d="M4.83538e-07-1.14583 832.286-1.14548 832.286 1.14618-4.83538e-07 1.14583ZM827.702-13.7497 855.202 0.000360892 827.702 13.7503Z" fill="#4472C4" transform="matrix(-1 0 0 1 2291.2 971)"/><text fill="#C00000" font-family="DengXian,DengXian_MSFontService,sans-serif" font-weight="400" font-size="64" transform="matrix(1 0 0 1 2647.3 894)">1. read </text><text fill="#C00000" font-family="DengXian,DengXian_MSFontService,sans-serif" font-weight="400" font-size="64" transform="matrix(1 0 0 1 2854.7 894)">param</text><text fill="#C00000" font-family="DengXian,DengXian_MSFontService,sans-serif" font-weight="400" font-size="64" transform="matrix(1 0 0 1 1872.5 945)">2.</text><text fill="#C00000" font-family="DengXian,DengXian_MSFontService,sans-serif" font-weight="400" font-size="64" transform="matrix(1 0 0 1 1996.25 945)">send</text><text fill="#C00000" font-family="DengXian,DengXian_MSFontService,sans-serif" font-weight="400" font-size="64" transform="matrix(1 0 0 1 1943.55 1022)">param</text><path d="M638.5 1715.84C638.5 1678.09 669.094 1647.5 706.835 1647.5L1718.16 1647.5C1755.91 1647.5 1786.5 1678.09 1786.5 1715.84L1786.5 1989.16C1786.5 2026.91 1755.91 2057.5 1718.16 2057.5L706.835 2057.5C669.094 2057.5 638.5 2026.91 638.5 1989.16Z" stroke="#7030A0" stroke-width="4.58333" stroke-miterlimit="8" fill="none" fill-rule="evenodd"/><text font-family="DengXian,DengXian_MSFontService,sans-serif" font-weight="400" font-size="83" transform="matrix(1 0 0 1 1133.84 1880)">data</text><rect x="1023.5" y="1310.5" width="378" height="111" stroke="#172C51" stroke-width="4.58333" stroke-miterlimit="8" fill="none"/><text font-family="DengXian,DengXian_MSFontService,sans-serif" font-weight="400" font-size="83" transform="matrix(1 0 0 1 1063.37 1393)">dataLink</text><text fill="#C00000" font-family="DengXian,DengXian_MSFontService,sans-serif" font-weight="400" font-size="64" transform="matrix(1 0 0 1 1243.38 1162)">3.2 read </text><text fill="#C00000" font-family="DengXian,DengXian_MSFontService,sans-serif" font-weight="400" font-size="64" transform="matrix(1 0 0 1 1484.58 1162)">dataset</text><text fill="#C00000" font-family="DengXian,DengXian_MSFontService,sans-serif" font-weight="400" font-size="64" transform="matrix(1 0 0 1 1243.38 1239)">path</text><text font-family="DengXian,DengXian_MSFontService,sans-serif" font-weight="400" font-size="64" transform="matrix(1 0 0 1 693.845 1573)">3.1 adapter.py creates </text><text font-family="DengXian,DengXian_MSFontService,sans-serif" font-weight="400" font-size="64" transform="matrix(1 0 0 1 1319.47 1573)">symbolic </text><text font-family="DengXian,DengXian_MSFontService,sans-serif" font-weight="400" font-size="64" transform="matrix(1 0 0 1 1578.43 1573)">link</text><path d="M1213.15 1421 1213.15 1624.21 1210.85 1624.21 1210.85 1421ZM1225.75 1619.63 1212 1647.13 1198.25 1619.63Z" fill="#4472C4"/><rect x="1214.5" y="589.5" width="451" height="112" stroke="#172C51" stroke-width="4.58333" stroke-miterlimit="8" fill="none"/><text font-family="DengXian,DengXian_MSFontService,sans-serif" font-weight="400" font-size="83" transform="matrix(1 0 0 1 1249.62 672)">outputLink</text><text fill="#C00000" font-family="DengXian,DengXian_MSFontService,sans-serif" font-weight="400" font-size="64" transform="matrix(1 0 0 1 642.695 925)">6. output</text><rect x="2944.5" y="592.5" width="452" height="111" stroke="#172C51" stroke-width="4.58333" stroke-miterlimit="8" fill="none"/><text font-family="DengXian,DengXian_MSFontService,sans-serif" font-weight="400" font-size="83" transform="matrix(1 0 0 1 2997.15 675)">output.txt</text><path d="M1665 643.854 2921.31 646.106 2921.31 648.398 1665 646.146ZM2916.75 633.494 2944.22 647.293 2916.7 660.994Z" fill="#4472C4"/><rect x="701.5" y="597.5" width="393" height="95.9999" stroke="#172C51" stroke-width="4.58333" stroke-miterlimit="8" fill="none"/><text font-family="DengXian,DengXian_MSFontService,sans-serif" font-weight="400" font-size="83" transform="matrix(1 0 0 1 758.076 672)">main.py</text><path d="M1210.52 1310.44 1208.99 1049.92 1211.28 1049.91 1212.81 1310.43ZM1196.41 1054.58 1210 1027 1223.91 1054.42Z" fill="#4472C4"/><path d="M1.51476e-06-1.14583 250.079-1.1455 250.079 1.14616-1.51476e-06 1.14583ZM245.495-13.7497 272.995 0.000360892 245.495 13.7503Z" fill="#4472C4" transform="matrix(-1 0 0 1 2943 971)"/><path d="M983.293 971.357 902.779 715.206 904.965 714.518 985.479 970.669ZM892.129 723.358 897 693 918.363 715.111Z" fill="#4472C4"/><text fill="#C00000" font-family="DengXian,DengXian_MSFontService,sans-serif" font-weight="400" font-size="64" transform="matrix(1 0 0 1 958.308 826)">5. call</text><rect x="675.5" y="1157.5" width="451" height="111" stroke="#172C51" stroke-width="4.58333" stroke-miterlimit="8" fill="none"/><text font-family="DengXian,DengXian_MSFontService,sans-serif" font-weight="400" font-size="83" transform="matrix(1 0 0 1 732.68 1240)">results.txt</text><path d="M757.094 692.659 894.73 1134.58 892.542 1135.27 754.906 693.341ZM905.401 1126.46 900.451 1156.81 879.145 1134.64Z" fill="#4472C4"/><text font-family="DengXian,DengXian_MSFontService,sans-serif" font-weight="400" font-size="64" transform="matrix(1 0 0 1 1795.95 715)">4. adapter.py creates </text><text font-family="DengXian,DengXian_MSFontService,sans-serif" font-weight="400" font-size="64" transform="matrix(1 0 0 1 2387.77 715)">symbolic </text><text font-family="DengXian,DengXian_MSFontService,sans-serif" font-weight="400" font-size="64" transform="matrix(1 0 0 1 2646.73 715)">link</text><path d="M1.04068-0.479494 51.4661 108.963 49.3848 109.922-1.04068 0.479494ZM60.9957 99.5255 60.0153 130.256 36.0193 111.033Z" fill="#4472C4" transform="matrix(1 0 0 -1 1019 1157.26)"/><text fill="#C00000" font-family="DengXian,DengXian_MSFontService,sans-serif" font-weight="400" font-size="64" transform="matrix(1 0 0 1 950.493 1122)">7.1 read</text><text fill="#C00000" font-family="DengXian,DengXian_MSFontService,sans-serif" font-weight="400" font-size="64" transform="matrix(1 0 0 1 1375.66 838)">7.2 reformat</text><path d="M0.784826-0.834854 212.961 198.627 211.392 200.297-0.784826 0.834854ZM218.255 186.304 228.873 215.158 199.419 206.341Z" fill="#4472C4" transform="matrix(1 0 0 -1 1210 916.158)"/><path d="M2238.5 1475C2238.5 1460.36 2250.36 1448.5 2265 1448.5L3502 1448.5C3516.64 1448.5 3528.5 1460.36 3528.5 1475L3528.5 1581C3528.5 1595.64 3516.64 1607.5 3502 1607.5L2265 1607.5C2250.36 1607.5 2238.5 1595.64 2238.5 1581Z" stroke="#00B0F0" stroke-width="4.58333" stroke-miterlimit="8" fill="none" fill-rule="evenodd"/><text font-family="DengXian,DengXian_MSFontService,sans-serif" font-weight="400" font-size="83" transform="matrix(1 0 0 1 2296.23 1546)">Instance </text><text font-family="DengXian,DengXian_MSFontService,sans-serif" font-weight="400" font-size="83" transform="matrix(1 0 0 1 2610.76 1546)">n</text><path d="M2298.5 1715.84C2298.5 1678.09 2329.09 1647.5 2366.84 1647.5L3378.17 1647.5C3415.91 1647.5 3446.5 1678.09 3446.5 1715.84L3446.5 1989.16C3446.5 2026.91 3415.91 2057.5 3378.17 2057.5L2366.84 2057.5C2329.09 2057.5 2298.5 2026.91 2298.5 1989.16Z" stroke="#00B050" stroke-width="4.58333" stroke-miterlimit="8" fill="none" fill-rule="evenodd"/><text font-family="DengXian,DengXian_MSFontService,sans-serif" font-weight="400" font-size="83" transform="matrix(1 0 0 1 2581.29 1879)">other directories</text></g></svg>